#!OML:ASF E:\Steps\Project 1\Capture day 1\Session 2\Subject.ASF
:FULLY-SPECIFIED
:DEGREES
150
root -6.15463 16.0457 34.4215 -153.541 -0.537252 -182.695
lowerback -27.2583 -1.78584 -5.45611
upperback 0.50208 -0.865185 -0.575263
thorax 15.2177 -0.918035 1.99813
lowerneck 9.03517 -3.11182 -7.78454
upperneck 15.6955 -3.74106 7.57889
head 3.51795 -1.36363 3.65281
rclavicle 9.34288e-015 -1.78906e-015
rhumerus -37.4542 -26.2202 -73.2529
rradius 22.1339
rwrist 5.08037
rhand 11.3351 -7.13291
rfingers 7.12502
rthumb 36.3915 -33.3523
lclavicle 9.34288e-015 -1.78906e-015
lhumerus -28.8395 9.08244 78.0731
lradius 22.0809
lwrist -4.71847
lhand -20.6395 -11.8614
lfingers 7.12502
lthumb 5.72246 18.0414
rfemur -20.2583 10.5005 20.5336
rtibia 11.9265
rfoot -26.0358 -5.07792
rtoes -11.6296
lfemur -50.0772 -7.923 -19.1759
ltibia 57.0332
lfoot -9.72982 6.71807
ltoes -41.0795
151
root -6.14172 16.0452 34.3812 -153.578 -0.432658 -182.823
lowerback -26.9903 -1.84931 -5.85752
upperback 0.480648 -0.850223 -0.475782
thorax 15.0652 -0.940234 2.33731
lowerneck 9.0361 -3.07157 -7.91936
upperneck 15.7785 -3.68854 7.62372
head 3.54236 -1.33834 3.69105
rclavicle 7.50412e-015 -1.55052e-014
rhumerus -37.1691 -25.8108 -73.3622
rradius 22.1328
rwrist 5.0664
rhand 10.5565 -6.70557
rfingers 7.12502
rthumb 35.654 -33.1064
lclavicle 7.50412e-015 -1.55052e-014
lhumerus -28.9856 9.38892 78.1523
lradius 22.0487
lwrist -5.07524
lhand -20.5644 -11.851
lfingers 7.12502
lthumb 5.79497 18.0498
rfemur -19.8761 9.15221 20.5857
rtibia 11.4388
rfoot -25.7643 -3.85625
rtoes -12.0764
lfemur -50.6807 -7.79143 -19.2944
ltibia 56.926
lfoot -9.73616 6.78897
ltoes -41.6788
152
root -6.13324 16.0453 34.3251 -153.8 -0.286426 -182.854
lowerback -26.8989 -1.6784 -5.74704
upperback 0.590012 -0.615384 -0.73864
thorax 15.1245 -0.817795 2.0812
lowerneck 9.18336 -3.08095 -7.61233
upperneck 15.8183 -3.67632 7.74125
head 3.52409 -1.30242 3.67969
rclavicle 4.12478e-015 2.70347e-014
rhumerus -37.0423 -26.0456 -73.7215
rradius 22.1123
rwrist 5.2418
rhand 9.87814 -6.31487
rfingers 7.12502
rthumb 35.0107 -32.8684
lclavicle 4.12478e-015 2.70347e-014
lhumerus -29.1675 8.47508 77.988
lradius 22.2327
lwrist -4.80596
lhand -20.4647 -11.9672
lfingers 7.12502
lthumb 5.89121 17.9309
rfemur -19.2769 8.96416 20.6164
rtibia 11.1024
rfoot -26.0219 -3.35443
rtoes -13.244
lfemur -50.9482 -7.72645 -19.3514
ltibia 56.5702
lfoot -9.74508 7.04994
ltoes -41.4009
153
root -6.12124 16.0412 34.2806 -153.681 -0.258769 -182.977
lowerback -26.9014 -1.65315 -5.88805
upperback 0.55182 -0.532396 -0.843089
thorax 15.0723 -0.789394 2.07482
lowerneck 9.34989 -3.17343 -7.63514
upperneck 15.6489 -3.83047 7.88801
head 3.46036 -1.38304 3.72864
rclavicle 4.47266e-015 2.3059e-014
rhumerus -36.9265 -26.0656 -73.8982
rradius 22.2512
rwrist 5.34942
rhand 9.37527 -6.22545
rfingers 7.12502
rthumb 34.5336 -32.8892
lclavicle 4.47266e-015 2.3059e-014
lhumerus -29.4131 7.83854 78.0301
lradius 22.3229
lwrist -4.43002
lhand -20.7449 -12.347
lfingers 7.12502
lthumb 5.62067 17.5585
rfemur -19.1179 9.28434 20.5208
rtibia 10.9547
rfoot -26.1023 -3.73013
rtoes -13.2742
lfemur -51.8052 -7.70286 -19.4217
ltibia 56.3797
lfoot -9.9271 7.19264
ltoes -40.4712
154
root -6.11299 16.0417 34.2299 -153.756 -0.224507 -183.048
lowerback -26.7523 -1.60794 -5.92483
upperback 0.553558 -0.459201 -0.923996
thorax 14.9945 -0.754441 2.03679
lowerneck 9.38559 -3.04782 -7.36526
upperneck 15.9957 -3.59896 7.9899
head 3.53629 -1.22108 3.72289
rclavicle -2.78299e-015 -8.34896e-015
rhumerus -36.8188 -26.016 -74.0395
rradius 22.3203
rwrist 5.30875
rhand 9.04139 -6.09569
rfingers 7.12502
rthumb 34.2166 -32.8311
lclavicle -2.78299e-015 -8.34896e-015
lhumerus -29.5755 7.83593 78.0101
lradius 22.1747
lwrist -4.27843
lhand -21.2611 -12.5647
lfingers 7.12502
lthumb 5.12227 17.3534
rfemur -18.6626 9.2646 20.5251
rtibia 10.7244
rfoot -26.0388 -3.70671
rtoes -13.0362
lfemur -52.228 -7.66833 -19.4532
ltibia 55.7212
lfoot -10.0996 7.29792
ltoes -39.8685
155
root -6.10715 16.0426 34.1768 -153.93 -0.2687 -183.083
lowerback -26.5955 -1.52454 -5.85044
upperback 0.294071 -0.353455 -1.09722
thorax 15.3684 -0.69941 1.91359
lowerneck 9.54615 -0.585176 -6.83121
upperneck 15.3593 -4.26756 8.70006
head 3.31327 -3.00426 3.7689
rclavicle -2.98177e-015 -2.38542e-015
rhumerus -36.6307 -26.2779 -74.1777
rradius 22.2119
rwrist 5.44144
rhand 8.6257 -5.76032
rfingers 7.12502
rthumb 33.8217 -32.5835
lclavicle -2.98177e-015 -2.38542e-015
lhumerus -29.565 7.74412 77.9364
lradius 21.9786
lwrist -4.02868
lhand -21.3021 -12.3633
lfingers 7.12502
lthumb 5.08263 17.5558
rfemur -18.1468 9.4717 20.511
rtibia 10.1134
rfoot -25.569 -3.49879
rtoes -10.1048
lfemur -52.449 -7.83883 -19.3749
ltibia 54.9
lfoot -10.0794 7.46051
ltoes -40.0593
156
root -6.09984 16.0353 34.1279 -153.787 -0.195297 -183.053
lowerback -26.698 -1.45893 -5.77319
upperback 0.298678 -0.277709 -1.1548
thorax 15.4247 -0.659411 1.82998
lowerneck 9.41758 -0.598752 -6.83367
upperneck 15.4737 -4.28389 8.65291
head 3.36893 -3.01019 3.75187
rclavicle 1.88845e-015 6.75868e-015
rhumerus -36.2916 -26.2328 -74.4233
rradius 22.2268
rwrist 5.42505
rhand 8.18411 -5.42893
rfingers 7.12502
rthumb 33.4021 -32.3434
lclavicle 1.88845e-015 6.75868e-015
lhumerus -29.6884 7.2886 78.0319
lradius 21.9923
lwrist -3.39806
lhand -21.0588 -12.5455
lfingers 7.12502
lthumb 5.31755 17.3678
rfemur -18.4314 10.1854 20.5403
rtibia 10.9276
rfoot -26.1982 -4.36137
rtoes -11.6355
lfemur -53.1963 -7.78152 -19.2232
ltibia 54.215
lfoot -10.0618 7.45923
ltoes -39.6088
157
root -6.0895 16.03 34.0741 -153.757 0.16583 -182.941
lowerback -26.7204 -1.37945 -5.7547
upperback 0.654579 -0.178337 -1.07339
thorax 15.0755 -0.611336 1.88809
lowerneck 9.2691 -0.705998 -7.27828
upperneck 15.5378 -4.43522 8.57867
head 3.43161 -3.10062 3.79928
rclavicle 3.67752e-015 -6.75868e-015
rhumerus -35.9303 -25.6767 -74.7572
rradius 22.4692
rwrist 5.07818
rhand 7.88312 -5.22804
rfingers 7.12502
rthumb 33.1159 -32.2037
lclavicle 3.67752e-015 -6.75868e-015
lhumerus -29.9905 7.40002 78.0576
lradius 22.0295
lwrist -3.2865
lhand -21.5074 -12.1844
lfingers 7.12502
lthumb 4.8844 17.7393
rfemur -19.0818 13.6197 20.3222
rtibia 12.7824
rfoot -27.5793 -6.92833
rtoes -10.6788
lfemur -53.5932 -7.47335 -19.0597
ltibia 53.1966
lfoot -10.5372 7.29251
ltoes -36.6628
158
root -6.08252 16.0176 34.0298 -153.349 0.318638 -183.004
lowerback -27.0242 -1.31222 -5.85247
upperback 0.611895 -0.0437563 -1.14096
thorax 15.1622 -0.564257 1.91346
lowerneck 9.2734 -0.797938 -7.3216
upperneck 15.432 -4.54389 8.6381
head 3.40973 -3.14702 3.82463
rclavicle -5.96354e-016 3.18055e-015
rhumerus -35.6026 -25.5115 -75.0732
rradius 22.702
rwrist 4.86403
rhand 7.4828 -5.05666
rfingers 7.12502
rthumb 32.7351 -32.1124
lclavicle -5.96354e-016 3.18055e-015
lhumerus -30.0577 7.70964 77.8952
lradius 21.9128
lwrist -3.84111
lhand -20.6198 -12.1915
lfingers 7.12502
lthumb 5.74141 17.7107
rfemur -19.4182 12.8197 20.371
rtibia 13.539
rfoot -28.2051 -6.37105
rtoes -12.433
lfemur -54.5473 -7.37045 -18.9822
ltibia 52.2764
lfoot -10.8167 7.08138
ltoes -35.3843
159
root -6.07781 16.0107 33.9686 -153.442 0.446773 -183.067
lowerback -26.9259 -1.28294 -5.90808
upperback 0.651573 0.0169117 -1.17148
thorax 15.1558 -0.538813 1.93504
lowerneck 9.24811 -0.737864 -7.44637
upperneck 15.408 -4.44578 8.58984
head 3.40024 -3.10133 3.83118
rclavicle -5.96354e-015 1.03368e-014
rhumerus -35.2342 -24.8815 -75.4747
rradius 22.8679
rwrist 4.34028
rhand 7.0793 -4.97543
rfingers 7.12502
rthumb 32.3512 -32.1103
lclavicle -5.96354e-015 1.03368e-014
lhumerus -30.2349 8.35297 77.6553
lradius 21.6957
lwrist -4.77463
lhand -21.1439 -12.1983
lfingers 7.12502
lthumb 5.23541 17.717
rfemur -18.3302 8.70194 20.6309
rtibia 10.9339
rfoot -26.4825 -1.95191
rtoes -9.97121
lfemur -54.8054 -7.23286 -19.0166
ltibia 51.1357
lfoot -10.5655 6.98335
ltoes -36.379
160
root -6.06937 16.0032 33.9051 -153.585 0.664362 -183.075
lowerback -26.7957 -1.2515 -6.0175
upperback 0.666046 0.0843374 -1.14026
thorax 15.1028 -0.515333 2.05626
lowerneck 9.56605 -0.720532 -7.7786
upperneck 15.193 -4.46662 8.75251
head 3.29503 -3.13201 3.94442
rclavicle 7.95139e-016 1.35174e-014
rhumerus -34.9905 -24.1421 -75.8211
rradius 23.1868
rwrist 3.83579
rhand 6.66045 -4.8556
rfingers 7.12502
rthumb 31.9524 -32.0711
lclavicle 7.95139e-016 1.35174e-014
lhumerus -30.4869 9.06979 77.4741
lradius 21.4111
lwrist -5.64017
lhand -20.915 -12.3904
lfingers 7.12502
lthumb 5.45642 17.5194
rfemur -17.9179 8.39456 20.715
rtibia 11.3616
rfoot -27.0763 -1.94849
rtoes -12.5518
lfemur -54.9792 -7.04913 -18.9488
ltibia 49.8633
lfoot -10.3392 6.88995
ltoes -37.3813
161
root -6.0678 15.995 33.8423 -153.605 0.790884 -183.108
lowerback -26.7686 -1.5969 -5.83857
upperback 0.684741 0.292554 -1.17152
thorax 15.1247 -0.115488 2.0818
lowerneck 9.68292 -0.756511 -7.98698
upperneck 15.0267 -4.52439 8.88872
head 3.23706 -3.16404 4.02453
rclavicle -5.06901e-015 -1.90833e-014
rhumerus -34.7424 -23.9541 -76.0117
rradius 23.4351
rwrist 3.76928
rhand 6.20059 -4.55038
rfingers 7.12502
rthumb 31.5144 -31.8525
lclavicle -5.06901e-015 -1.90833e-014
lhumerus -30.6798 9.12085 77.4982
lradius 21.3017
lwrist -5.73043
lhand -20.8128 -12.1153
lfingers 7.12502
lthumb 5.55513 17.7918
rfemur -17.6828 7.92532 20.6674
rtibia 11.1246
rfoot -27.103 -1.26462
rtoes -12.3187
lfemur -55.2495 -7.14909 -18.7894
ltibia 48.4413
lfoot -10.2998 6.83094
ltoes -37.4225
162
root -6.06177 15.984 33.7914 -153.358 0.698168 -183.21
lowerback -26.7751 -1.19839 -6.10706
upperback 0.602181 0.182308 -1.24724
thorax 15.0085 -0.475619 2.02432
lowerneck 9.73465 -0.78732 -8.06911
upperneck 14.9845 -4.58439 9.00203
head 3.22417 -3.19535 4.07466
rclavicle -5.96354e-015 0
rhumerus -34.4929 -23.7556 -76.3058
rradius 23.5374
rwrist 3.64358
rhand 5.67914 -4.28307
rfingers 7.12502
rthumb 31.0175 -31.6812
lclavicle -5.96354e-015 0
lhumerus -30.9452 8.68922 77.5072
lradius 21.343
lwrist -5.36142
lhand -19.3103 -11.4612
lfingers 7.12502
lthumb 7.00564 18.4028
rfemur -17.4725 8.096 20.6174
rtibia 10.7088
rfoot -27.1279 -1.58818
rtoes -12.78
lfemur -55.9613 -7.14527 -18.7171
ltibia 47.2162
lfoot -9.75732 6.81563
ltoes -38.9204
163
root -6.05745 15.9752 33.729 -153.419 0.812088 -183.266
lowerback -26.7002 -1.5074 -5.93735
upperback 0.269587 0.484225 -1.44089
thorax 15.3637 -0.0189699 1.96998
lowerneck 9.70091 -0.983777 -7.94283
upperneck 14.8298 -4.79086 8.94846
head 3.19892 -3.27804 4.03472
rclavicle 0 -2.38542e-014
rhumerus -34.2449 -23.5423 -76.7486
rradius 23.6857
rwrist 3.27683
rhand 5.18077 -4.15261
rfingers 7.12502
rthumb 30.5424 -31.6403
lclavicle 0 -2.38542e-014
lhumerus -31.0797 8.13051 77.4698
lradius 21.283
lwrist -4.97219
lhand -20.474 -10.9478
lfingers 7.12502
lthumb 5.88222 18.9505
rfemur -17.3952 8.51036 20.5531
rtibia 11.2854
rfoot -27.6061 -1.84233
rtoes -12.1563
lfemur -56.1453 -7.25943 -18.548
ltibia 45.7808
lfoot -9.13268 7.00136
ltoes -41.2353
